<svg xmlns="http://www.w3.org/2000/svg" version="1.1" xmlns:xlink="http://www.w3.org/1999/xlink" xmlns:svgjs="http://svgjs.dev/svgjs" width="1500" height="481" viewBox="0 0 1500 481"><g transform="matrix(1,0,0,1,-0.9090909090911055,-0.67114105853463)"><svg viewBox="0 0 396 127" data-background-color="#f0f2ca" preserveAspectRatio="xMidYMid meet" height="481" width="1500" xmlns="http://www.w3.org/2000/svg" xmlns:xlink="http://www.w3.org/1999/xlink"><g id="tight-bounds" transform="matrix(1,0,0,1,0.24000000000003752,0.17720356431163964)"><svg viewBox="0 0 395.5199999999999 126.64559287137675" height="126.64559287137675" width="395.5199999999999"><g><svg viewBox="0 0 686.8759162459623 219.93782271955914" height="126.64559287137675" width="395.5199999999999"><g><rect width="11.696338856705298" height="219.93782271955914" x="249.0408892826987" y="0" fill="#182801" opacity="1" stroke-width="0" stroke="transparent" fill-opacity="1" class="rect-qz-0" data-fill-palette-color="primary" rx="1%" id="qz-0" data-palette-color="#182801"></rect></g><g transform="matrix(1,0,0,1,291.35591624596236,0.54710901174019)"><svg viewBox="0 0 395.52 218.84360469607876" height="218.84360469607876" width="395.52"><g id="textblocktransform"><svg viewBox="0 0 395.52 218.84360469607876" height="218.84360469607876" width="395.52" id="textblock"><g><svg viewBox="0 0 395.52 129.69843654822333" height="129.69843654822333" width="395.52"><g transform="matrix(1,0,0,1,0,0)"><svg width="395.52" viewBox="1.4 -40 123.11 40.38" height="129.69843654822333" data-palette-color="#182801"><path d="M13.9 0L5.83 0 1.4-40 5.5-40 7.9-17.73 8.85-3.6 10.88-3.6 11.83-17.73 14.23-40 18.38-40 13.9 0ZM28.05 0.38L28.05 0.38Q24.1 0.38 22.39-1.18 20.67-2.73 20.5-6.18L20.5-6.18Q20.45-7.98 20.41-10.21 20.37-12.45 20.37-14.84 20.37-17.23 20.4-19.53 20.42-21.83 20.5-23.78L20.5-23.78Q20.67-27.33 22.44-28.85 24.2-30.38 28-30.38L28-30.38Q31.82-30.38 33.5-28.83 35.17-27.28 35.32-23.95L35.32-23.95Q35.35-23.38 35.36-21.76 35.37-20.15 35.36-18.11 35.35-16.07 35.27-14.23L35.27-14.23 24.4-14.23Q24.4-12.15 24.44-10.04 24.47-7.93 24.5-5.75L24.5-5.75Q24.55-4.05 25.37-3.4 26.2-2.75 27.97-2.75L27.97-2.75Q29.75-2.75 30.51-3.4 31.27-4.05 31.35-5.75L31.35-5.75Q31.4-6.5 31.39-7.8 31.37-9.1 31.3-10.5L31.3-10.5 35.27-10.5Q35.32-9.65 35.35-8.31 35.37-6.98 35.32-6.18L35.32-6.18Q35.15-2.68 33.51-1.15 31.87 0.38 28.05 0.38ZM24.4-17.28L24.4-17.28 31.4-17.28Q31.42-18.68 31.44-20.11 31.45-21.55 31.42-22.69 31.4-23.83 31.35-24.28L31.35-24.28Q31.25-25.98 30.45-26.64 29.65-27.3 28-27.3L28-27.3Q26.1-27.3 25.32-26.55 24.55-25.8 24.5-24.28L24.5-24.28Q24.47-22.58 24.44-20.81 24.4-19.05 24.4-17.28ZM44.2 0L40.12 0 40.12-30 44.2-30 44.2-27.03 45.05-27.03Q45.5-28.73 46.58-29.43 47.67-30.13 49.5-30.13L49.5-30.13Q49.97-30.13 50.43-30.08 50.9-30.03 51.37-30.03L51.37-30.03 51.37-26.9 49.55-26.9Q47.27-26.9 45.97-26.18 44.67-25.45 44.2-23.6L44.2-23.6 44.2 0ZM58.69 0.38L58.69 0.38Q55.94 0.38 54.63-1.11 53.32-2.6 53.19-5.95L53.19-5.95Q53.12-8 53.09-10.36 53.07-12.73 53.08-15.14 53.09-17.55 53.12-19.85 53.14-22.15 53.19-24.05L53.19-24.05Q53.29-27.5 54.73-28.94 56.17-30.38 58.79-30.38L58.79-30.38Q60.72-30.38 61.84-29.6 62.97-28.83 63.79-27.25L63.79-27.25 64.49-27.25 64.49-40 68.54-40 68.54 0 64.49 0 64.49-2.78 63.74-2.78Q62.89-1.23 61.76-0.43 60.62 0.38 58.69 0.38ZM60.09-2.68L60.09-2.68Q61.59-2.68 62.77-3.38 63.94-4.08 64.49-5.6L64.49-5.6 64.49-24.43Q63.94-25.95 62.77-26.65 61.59-27.35 60.12-27.35L60.12-27.35Q58.59-27.35 57.94-26.66 57.29-25.98 57.24-24.43L57.24-24.43Q57.12-21.33 57.08-17.98 57.04-14.63 57.08-11.48 57.12-8.33 57.19-5.8L57.19-5.8Q57.24-4.05 57.94-3.36 58.64-2.68 60.09-2.68ZM79.09 0.33L79.09 0.33Q76.32 0.33 74.79-1.14 73.27-2.6 73.04-5.58L73.04-5.58Q73.02-6.2 72.99-6.81 72.97-7.43 72.99-8.05L72.99-8.05Q73.09-9.85 73.65-11.28 74.22-12.7 75.47-13.88 76.72-15.05 78.92-16.1L78.92-16.1Q80.09-16.68 81.44-17.25 82.79-17.82 84.09-18.25L84.09-18.25 84.09-24.2Q84.09-25.85 83.4-26.58 82.72-27.3 80.94-27.3L80.94-27.3Q79.44-27.3 78.54-26.68 77.64-26.05 77.57-24.45L77.57-24.45Q77.52-23.7 77.5-22.74 77.49-21.78 77.52-20.91 77.54-20.05 77.57-19.58L77.57-19.58 73.67-19.58Q73.64-20.65 73.62-21.78 73.59-22.9 73.62-23.95L73.62-23.95Q73.72-26.15 74.47-27.58 75.22-29 76.83-29.69 78.44-30.38 81.12-30.38L81.12-30.38Q83.79-30.38 85.29-29.66 86.79-28.95 87.4-27.4 88.02-25.85 88.02-23.4L88.02-23.4 87.99 0 84.02 0 84.02-2.78 83.47-2.78Q82.82-1.33 81.93-0.5 81.04 0.33 79.09 0.33ZM80.14-2.68L80.14-2.68Q81.57-2.68 82.54-3.4 83.52-4.13 84.04-5.5L84.04-5.5 84.09-14.88Q83.09-14.58 82.04-14.1 80.99-13.63 79.69-12.83L79.69-12.83Q78.07-11.9 77.55-10.74 77.04-9.58 76.99-8.05L76.99-8.05Q76.97-7.38 76.98-6.85 76.99-6.33 77.02-5.8L77.02-5.8Q77.14-4.35 77.95-3.51 78.77-2.68 80.14-2.68ZM97.41 0L93.41 0 93.41-30 97.41-30 97.41-27.25 98.29-27.25Q99.14-28.8 100.31-29.59 101.49-30.38 103.34-30.38L103.34-30.38Q106.11-30.38 107.45-28.88 108.79-27.38 108.81-24.05L108.81-24.05 108.81 0 104.84 0 104.84-24.35Q104.81-25.95 104.11-26.65 103.41-27.35 101.89-27.35L101.89-27.35Q100.44-27.35 99.18-26.58 97.91-25.8 97.41-24.43L97.41-24.43 97.41 0ZM121.89 0.38L121.89 0.38Q117.86 0.38 116.24-1.13 114.61-2.63 114.61-6.23L114.61-6.23 114.59-26.9 112.24-26.9 112.24-30 114.71-30 114.71-38.5 118.71-38.5 118.71-30 123.91-30 123.91-26.9 118.59-26.9 118.61-5.78Q118.61-3.98 119.27-3.34 119.94-2.7 121.96-2.7L121.96-2.7Q122.71-2.7 123.25-2.74 123.79-2.78 124.51-2.85L124.51-2.85 124.51 0.13Q123.91 0.23 123.27 0.3 122.64 0.38 121.89 0.38Z" opacity="1" transform="matrix(1,0,0,1,0,0)" fill="#182801" class="wordmark-text-0" data-fill-palette-color="primary" id="text-0"></path></svg></g></svg></g><g transform="matrix(1,0,0,1,0,160.3171246547817)"><svg viewBox="0 0 232.20979199999996 58.52648004129706" height="58.52648004129706" width="232.20979199999996"><g transform="matrix(1,0,0,1,0,0)"><svg width="232.20979199999996" viewBox="2.25 -40 190.8133333333333 48.1" height="58.52648004129706" data-palette-color="#182801"><path d="M2.4-6.15L2.4-6.15Q2.33-8.18 2.29-10.41 2.25-12.65 2.25-14.96 2.25-17.28 2.29-19.53 2.33-21.78 2.4-23.85L2.4-23.85Q2.53-27.05 3.73-28.56 4.93-30.08 7.78-30.3L7.78-30.3 7.78-27.6Q6.7-27.4 6.23-26.69 5.75-25.98 5.7-24.53L5.7-24.53Q5.63-21.88 5.59-19.55 5.55-17.23 5.55-14.99 5.55-12.75 5.59-10.43 5.63-8.1 5.7-5.45L5.7-5.45Q5.75-4.03 6.24-3.31 6.73-2.6 7.78-2.4L7.78-2.4 7.78 0.3Q4.93 0.08 3.73-1.44 2.53-2.95 2.4-6.15ZM9.98 0.3L9.98 0.3 9.98-2.4Q11.05-2.6 11.53-3.31 12-4.03 12.05-5.45L12.05-5.45Q12.13-8.13 12.18-10.45 12.23-12.78 12.23-15 12.23-17.23 12.18-19.55 12.13-21.88 12.05-24.53L12.05-24.53Q12-26 11.54-26.71 11.08-27.43 9.98-27.6L9.98-27.6 9.98-30.3Q11.9-30.15 13.05-29.43 14.2-28.7 14.74-27.34 15.28-25.98 15.38-23.85L15.38-23.85Q15.43-21.83 15.46-19.58 15.5-17.32 15.5-15.03 15.5-12.73 15.46-10.46 15.43-8.2 15.38-6.15L15.38-6.15Q15.28-4.03 14.74-2.65 14.2-1.28 13.05-0.56 11.9 0.15 9.98 0.3ZM23.8 0L20.47 0 20.47-30 23.8-30 23.8 0ZM25.97-26.98L25.97-26.98 25.97-29.5Q26.82-30.08 28.3-30.08L28.3-30.08Q28.7-30.08 29.13-30.05 29.57-30.03 29.87-30.03L29.87-30.03 29.87-27.35 28.32-27.35Q26.9-27.35 25.97-26.98ZM37.84 5.6L37.84 8.1Q35.22 7.93 33.76 6.95 32.3 5.98 32.12 4.03L32.12 4.03Q32.09 3.73 32.07 3.45 32.05 3.18 32.09 2.9L32.09 2.9Q32.14 1.48 33.01 0.66 33.87-0.15 35.12-0.38L35.12-0.38 35.12-1Q32.82-1.73 32.7-3.58L32.7-3.58Q32.67-3.88 32.67-4.03 32.67-4.17 32.7-4.45L32.7-4.45Q32.77-5.45 33.45-6.18 34.12-6.9 35.09-7.03L35.09-7.03 35.09-7.68Q33.8-8.33 33.16-9.65 32.52-10.98 32.45-13.1L32.45-13.1Q32.39-14.73 32.37-16 32.34-17.28 32.34-18.49 32.34-19.7 32.37-21.06 32.39-22.43 32.45-24.2L32.45-24.2Q32.59-27.2 33.84-28.65 35.09-30.1 37.84-30.3L37.84-30.3 37.84-27.6Q36.72-27.43 36.21-26.7 35.7-25.98 35.64-24.53L35.64-24.53Q35.59-22.53 35.57-20.5 35.55-18.48 35.57-16.53 35.59-14.58 35.64-12.78L35.64-12.78Q35.7-11.33 36.22-10.61 36.74-9.9 37.84-9.7L37.84-9.7 37.84-6.93Q36.64-6.78 36.05-6.28 35.45-5.78 35.45-5L35.45-5Q35.45-4.93 35.45-4.85 35.45-4.78 35.45-4.7L35.45-4.7Q35.45-3.88 35.98-3.49 36.52-3.1 37.84-2.95L37.84-2.95 37.84-0.45Q36.52-0.38 35.67 0.16 34.82 0.7 34.74 2.08L34.74 2.08Q34.72 2.35 34.72 2.61 34.72 2.88 34.74 3.15L34.74 3.15Q34.82 4.48 35.67 4.98 36.52 5.48 37.84 5.6L37.84 5.6ZM40.02 8.08L40.02 8.08 40.02 5.68Q41.62 5.6 42.59 5.06 43.57 4.53 43.7 3.08L43.7 3.08Q43.77 2.8 43.77 2.54 43.77 2.27 43.7 2.02L43.7 2.02Q43.57 0.55 42.61 0.09 41.64-0.38 40.02-0.45L40.02-0.45 40.02-2.8Q43.07-2.63 44.71-1.56 46.34-0.5 46.55 1.98L46.55 1.98Q46.57 2.25 46.58 2.58 46.59 2.9 46.55 3.28L46.55 3.28Q46.34 5.85 44.55 6.9 42.74 7.95 40.02 8.08ZM40.02-7L40.02-7 40.02-9.7Q41.09-9.9 41.61-10.61 42.12-11.33 42.2-12.78L42.2-12.78Q42.27-14.58 42.28-16.53 42.3-18.48 42.28-20.5 42.27-22.53 42.2-24.53L42.2-24.53Q42.12-25.98 41.62-26.7 41.12-27.43 40.02-27.6L40.02-27.6 40.02-30.3Q43.67-30 44.74-27.43L44.74-27.43 45.34-27.43Q45.42-28.65 46.24-29.33 47.07-30 48.39-30L48.39-30 48.39-27.35 47.89-27.35Q46.74-27.35 46.11-26.41 45.47-25.48 45.47-23.6L45.47-23.6 45.47-22.33Q45.47-20.5 45.48-19.1 45.49-17.7 45.48-16.31 45.47-14.93 45.42-13.1L45.42-13.1Q45.3-10.13 44.03-8.68 42.77-7.23 40.02-7ZM50.09-5.33L50.09-5.33Q50.07-5.98 50.06-6.63 50.04-7.28 50.07-7.88L50.07-7.88Q50.17-9.65 50.64-11.06 51.12-12.48 52.19-13.66 53.27-14.85 55.12-15.9L55.12-15.9Q55.67-16.23 56.26-16.54 56.84-16.85 57.44-17.15L57.44-17.15 57.44-14.7Q57.07-14.48 56.67-14.2 56.27-13.93 55.82-13.58L55.82-13.58Q54.37-12.5 53.91-11.04 53.44-9.58 53.37-7.88L53.37-7.88Q53.34-7.45 53.34-6.81 53.34-6.18 53.37-5.53L53.37-5.53Q53.49-3.95 54.22-3.1 54.94-2.25 56.17-2.25L56.17-2.25Q56.87-2.25 57.44-2.5L57.44-2.5 57.44-0.45Q56.52 0.33 55.04 0.33L55.04 0.33Q52.62 0.33 51.46-1.09 50.29-2.5 50.09-5.33ZM53.82-19.78L50.62-19.78Q50.59-20.75 50.57-22.04 50.54-23.33 50.57-24.3L50.57-24.3Q50.69-27.2 51.88-28.64 53.07-30.08 55.77-30.3L55.77-30.3 55.77-27.63Q54.84-27.45 54.37-26.76 53.89-26.08 53.82-24.63L53.82-24.63Q53.79-24.05 53.78-23.19 53.77-22.33 53.78-21.43 53.79-20.53 53.82-19.78L53.82-19.78ZM62.89 0L59.62 0 59.62-24.53Q59.62-25.85 59.24-26.58 58.87-27.3 57.97-27.55L57.97-27.55 57.97-30.3Q60.74-30.05 61.84-28.53 62.94-27 62.92-23.88L62.92-23.88 62.89 0ZM71.57 0L68.24 0 68.24-30 71.57-30 71.57 0ZM81.42 0L78.12 0 78.12-24.63Q78.09-26.3 77.48-27.03 76.87-27.75 75.52-27.75L75.52-27.75Q75.04-27.75 74.6-27.64 74.17-27.53 73.74-27.33L73.74-27.33 73.74-29.28Q74.32-29.8 75.02-30.08 75.72-30.35 76.69-30.35L76.69-30.35Q79.04-30.35 80.22-28.98 81.39-27.6 81.42-24.4L81.42-24.4 81.42 0ZM91.04-36L85.79-36 85.79-40 91.04-40 91.04-36ZM90.06 0L86.76 0 86.76-30 90.06-30 90.06 0ZM95.14-5.75L95.14-5.75Q95.09-7.78 95.06-10.13 95.04-12.48 95.04-14.94 95.04-17.4 95.06-19.78 95.09-22.15 95.14-24.2L95.14-24.2Q95.29-27.2 96.51-28.64 97.74-30.08 100.46-30.3L100.46-30.3 100.46-27.6Q99.41-27.43 98.95-26.75 98.49-26.08 98.46-24.63L98.46-24.63Q98.41-21.95 98.39-19.61 98.36-17.28 98.36-15.03 98.36-12.78 98.39-10.45 98.41-8.13 98.46-5.45L98.46-5.45Q98.49-4 98.95-3.3 99.41-2.6 100.46-2.4L100.46-2.4 100.46 0.3Q97.71 0.08 96.49-1.35 95.26-2.78 95.14-5.75ZM102.64 0.3L102.64 0.3 102.64-2.4Q103.66-2.6 104.11-3.3 104.56-4 104.61-5.45L104.61-5.45Q104.61-6.43 104.62-7.63 104.64-8.83 104.56-10.3L104.56-10.3 107.81-10.3Q107.89-9.18 107.9-7.95 107.91-6.73 107.86-5.75L107.86-5.75Q107.74-2.78 106.52-1.34 105.31 0.1 102.64 0.3ZM107.81-19.78L104.56-19.78Q104.61-20.63 104.62-21.5 104.64-22.38 104.62-23.2 104.61-24.03 104.61-24.63L104.61-24.63Q104.56-26.08 104.11-26.75 103.66-27.43 102.64-27.6L102.64-27.6 102.64-30.3Q105.34-30.1 106.56-28.68 107.79-27.25 107.86-24.3L107.86-24.3Q107.89-23.33 107.89-22.13 107.89-20.93 107.81-19.78L107.81-19.78ZM122.08-5.75L122.08-5.75Q122.06-6.73 122.06-7.95 122.06-9.18 122.13-10.3L122.13-10.3 125.11-10.3Q125.06-8.83 125.06-7.63 125.06-6.43 125.08-5.45L125.08-5.45Q125.11-4 125.53-3.3 125.96-2.6 126.96-2.4L126.96-2.4 126.96 0.3Q124.36 0.08 123.27-1.35 122.18-2.78 122.08-5.75ZM129.13 0.3L129.13 0.3 129.13-2.38Q130.23-2.58 130.71-3.26 131.18-3.95 131.21-5.45L131.21-5.45Q131.23-6.18 131.24-6.74 131.26-7.3 131.27-7.85 131.28-8.4 131.26-9.05L131.26-9.05Q131.21-10.93 130.79-11.9 130.38-12.88 129.11-13.3L129.11-13.3 126.76-14.1Q125.03-14.68 124.01-15.54 122.98-16.4 122.54-17.79 122.11-19.18 122.03-21.38L122.03-21.38Q122.01-22.15 122.03-22.8 122.06-23.45 122.08-24.2L122.08-24.2Q122.11-27.2 123.22-28.64 124.33-30.08 127.16-30.3L127.16-30.3 127.16-27.6Q126.13-27.43 125.74-26.75 125.36-26.08 125.33-24.63L125.33-24.63Q125.31-23.75 125.28-23.13 125.26-22.5 125.28-21.6L125.28-21.6Q125.31-19.73 125.64-18.57 125.98-17.43 127.43-16.93L127.43-16.93 129.66-16.23Q132.06-15.5 133.22-13.94 134.38-12.38 134.38-9.2L134.38-9.2Q134.38-8.38 134.37-7.44 134.36-6.5 134.31-5.68L134.31-5.68Q134.23-2.73 133.07-1.31 131.91 0.1 129.13 0.3ZM134.13-19.78L131.08-19.78Q131.11-20.63 131.12-21.5 131.13-22.38 131.12-23.2 131.11-24.03 131.08-24.63L131.08-24.63Q131.06-26.05 130.67-26.74 130.28-27.43 129.33-27.6L129.33-27.6 129.33-30.3Q131.96-30.08 133.02-28.66 134.08-27.25 134.18-24.3L134.18-24.3Q134.18-23.68 134.18-22.91 134.18-22.15 134.18-21.34 134.18-20.53 134.13-19.78L134.13-19.78ZM139.33-27.35L137.28-27.35 137.28-30 139.33-30 139.33-38.5 142.65-38.5 142.65-5.43Q142.65-3.63 143.15-2.95 143.65-2.27 145.5-2.27L145.5-2.27Q146.2-2.27 146.65-2.31 147.1-2.35 147.68-2.45L147.68-2.45 147.68 0.1Q147.2 0.2 146.62 0.28 146.03 0.35 145.45 0.35L145.45 0.35Q141.95 0.35 140.64-1.07 139.33-2.5 139.33-5.75L139.33-5.75 139.33-27.35ZM147.18-27.35L144.48-27.35 144.48-30 147.18-30 147.18-27.35ZM150.23-6.15L150.23-6.15Q150.15-8.18 150.11-10.41 150.08-12.65 150.08-14.96 150.08-17.28 150.11-19.53 150.15-21.78 150.23-23.85L150.23-23.85Q150.35-27.05 151.55-28.56 152.75-30.08 155.6-30.3L155.6-30.3 155.6-27.6Q154.53-27.4 154.05-26.69 153.58-25.98 153.53-24.53L153.53-24.53Q153.45-21.88 153.41-19.55 153.38-17.23 153.38-14.99 153.38-12.75 153.41-10.43 153.45-8.1 153.53-5.45L153.53-5.45Q153.58-4.03 154.06-3.31 154.55-2.6 155.6-2.4L155.6-2.4 155.6 0.3Q152.75 0.08 151.55-1.44 150.35-2.95 150.23-6.15ZM157.8 0.3L157.8 0.3 157.8-2.4Q158.88-2.6 159.35-3.31 159.83-4.03 159.88-5.45L159.88-5.45Q159.95-8.13 160-10.45 160.05-12.78 160.05-15 160.05-17.23 160-19.55 159.95-21.88 159.88-24.53L159.88-24.53Q159.83-26 159.36-26.71 158.9-27.43 157.8-27.6L157.8-27.6 157.8-30.3Q159.73-30.15 160.88-29.43 162.03-28.7 162.56-27.34 163.1-25.98 163.2-23.85L163.2-23.85Q163.25-21.83 163.29-19.58 163.33-17.32 163.33-15.03 163.33-12.73 163.29-10.46 163.25-8.2 163.2-6.15L163.2-6.15Q163.1-4.03 162.56-2.65 162.03-1.28 160.88-0.56 159.73 0.15 157.8 0.3ZM171.62 0L168.3 0 168.3-30 171.62-30 171.62 0ZM173.8-26.98L173.8-26.98 173.8-29.5Q174.65-30.08 176.12-30.08L176.12-30.08Q176.52-30.08 176.96-30.05 177.4-30.03 177.7-30.03L177.7-30.03 177.7-27.35 176.15-27.35Q174.72-27.35 173.8-26.98ZM180.27-5.75L180.27-5.75Q180.22-7.78 180.2-10.13 180.17-12.48 180.17-14.94 180.17-17.4 180.2-19.78 180.22-22.15 180.27-24.2L180.27-24.2Q180.42-27.2 181.67-28.64 182.92-30.08 185.6-30.28L185.6-30.28 185.6-27.6Q184.57-27.38 184.1-26.66 183.62-25.95 183.6-24.63L183.6-24.63Q183.55-21.95 183.52-19.61 183.5-17.28 183.5-15.05 183.5-12.83 183.52-10.49 183.55-8.15 183.6-5.45L183.6-5.45Q183.62-3.98 184.08-3.29 184.55-2.6 185.6-2.4L185.6-2.4 185.6 0.3Q182.85 0.08 181.62-1.35 180.4-2.78 180.27-5.75ZM187.8 0.3L187.8 0.3 187.8-2.4Q188.77-2.6 189.22-3.3 189.67-4 189.75-5.45L189.75-5.45Q189.8-6.4 189.78-7.6 189.77-8.8 189.7-10.3L189.7-10.3 192.95-10.3Q193.02-9.18 193.03-7.95 193.05-6.73 193-5.75L193-5.75Q192.85-2.78 191.67-1.34 190.5 0.1 187.8 0.3ZM192.95-14.3L185.35-14.3 185.35-16.78 189.75-16.78Q189.8-18.53 189.8-20.08 189.8-21.63 189.78-22.79 189.77-23.95 189.75-24.63L189.75-24.63Q189.65-25.95 189.2-26.66 188.75-27.38 187.8-27.6L187.8-27.6 187.8-30.3Q190.45-30.08 191.65-28.68 192.85-27.28 193-24.3L193-24.3Q193.02-23.55 193.05-22.05 193.07-20.55 193.06-18.57 193.05-16.6 192.95-14.3L192.95-14.3Z" opacity="1" transform="matrix(1,0,0,1,0,0)" fill="#182801" class="slogan-text-1" data-fill-palette-color="secondary" id="text-1"></path></svg></g></svg></g></svg></g></svg></g><g transform="matrix(1,0,0,1,0,0.54710901174019)"><svg viewBox="0 0 218.42220117614033 218.84360469607876" height="218.84360469607876" width="218.42220117614033"><g><svg xmlns="http://www.w3.org/2000/svg" xmlns:xlink="http://www.w3.org/1999/xlink" version="1.1" x="0" y="0" viewBox="1.807200665735313 1.760525928086257 48.385598362229004 48.47894904432257" enable-background="new 0 0 52 52" xml:space="preserve" height="218.84360469607876" width="218.42220117614033" class="icon-icon-0" data-fill-palette-color="accent" id="icon-0"><g fill="#1dbf72" data-fill-palette-color="accent"><g fill="#1dbf72" data-fill-palette-color="accent"><path d="M33.418 12.38c2.019 1.383 4.39 3.121 5.668 5.3 2.437 4.155-0.144 7.755-3.802 9.531-2.39 1.161-4.444 2.263-6.373 4.13-3.091 2.993-5.683 4.939-9.366 7.109-2.629 1.548-5.006 3.469-7.41 5.336-1.286 0.999-7.927 7.55-6.884-0.902 0.155-1.256 2.113-3.203 2.791-4.182 2.327-3.359 5.022-6.386 7.529-9.602 2.199-2.821 4.096-5.849 5.962-8.895 1.86-3.037 7.656-14.728 12.034-8.233 0.895 1.327 3.061 0.077 2.159-1.262-7.479-11.093-17.046 9.742-20.144 14.164C13.299 28.131-5.734 47.254 5.137 50.111c4.04 1.062 8.872-4.744 11.725-6.843 2.886-2.124 6.223-3.449 9.091-5.53 2.192-1.59 3.672-3.879 5.738-5.595 3.776-3.136 11.058-3.979 11.767-9.903 0.597-4.991-5.221-9.581-8.778-12.018C33.35 9.31 32.098 11.476 33.418 12.38L33.418 12.38z" fill="#1dbf72" data-fill-palette-color="accent"></path></g><g fill="#1dbf72" data-fill-palette-color="accent"><path d="M45.655 4.176c-2.672 2.797-5.344 5.595-8.016 8.392-1.111 1.163 0.654 2.934 1.768 1.767 2.672-2.797 5.344-5.595 8.016-8.391C48.534 4.78 46.769 3.01 45.655 4.176L45.655 4.176z" fill="#1dbf72" data-fill-palette-color="accent"></path></g><g fill="#1dbf72" data-fill-palette-color="accent"><path d="M37.038 4.205c0.888 0.194 0.949 3.087 0.965 3.797 0.033 1.5-0.274 2.966-0.876 4.337-0.641 1.459 1.512 2.733 2.158 1.262 0.991-2.255 1.414-4.586 1.107-7.046-0.221-1.768-0.638-4.312-2.689-4.761C36.135 1.451 35.465 3.86 37.038 4.205L37.038 4.205z" fill="#1dbf72" data-fill-palette-color="accent"></path></g><g fill="#1dbf72" data-fill-palette-color="accent"><path d="M49.365 13.594c-0.742-0.307-1.335-0.889-2.062-1.228-0.753-0.352-1.557-0.479-2.376-0.561-1.806-0.179-3.642-0.217-5.365 0.415-1.498 0.549-0.851 2.966 0.664 2.41 1.482-0.543 3.141-0.531 4.701-0.325 1.463 0.193 2.449 1.151 3.773 1.7C50.185 16.62 50.833 14.202 49.365 13.594L49.365 13.594z" fill="#1dbf72" data-fill-palette-color="accent"></path></g><g fill="#1dbf72" data-fill-palette-color="accent"><path d="M18.555 24.256c0.861 0.38 1.755 1.472 2.271 2.249 0.614 0.924 1.185 1.773 2.164 2.361 1.383 0.83 2.641-1.331 1.262-2.159-0.915-0.549-1.365-1.663-2.058-2.445-0.702-0.794-1.383-1.726-2.377-2.165C18.358 21.454 17.084 23.608 18.555 24.256L18.555 24.256z" fill="#1dbf72" data-fill-palette-color="accent"></path></g><g fill="#1dbf72" data-fill-palette-color="accent"><path d="M14.879 29.415c0.923 0.554 1.423 1.725 1.96 2.613 0.832 1.374 2.995 0.119 2.159-1.262-0.786-1.298-1.515-2.703-2.857-3.509C14.758 26.426 13.5 28.587 14.879 29.415L14.879 29.415z" fill="#1dbf72" data-fill-palette-color="accent"></path></g><g fill="#1dbf72" data-fill-palette-color="accent"><path d="M10.89 34.686c0.346 0.368 0.681 0.747 0.984 1.152 0.403 0.54 1.081 0.816 1.71 0.449 0.532-0.311 0.855-1.166 0.448-1.71-0.431-0.577-0.881-1.134-1.374-1.659C11.553 31.744 9.788 33.514 10.89 34.686L10.89 34.686z" fill="#1dbf72" data-fill-palette-color="accent"></path></g></g></svg></g></svg></g></svg></g><defs></defs></svg><rect width="395.5199999999999" height="126.64559287137675" fill="none" stroke="none" visibility="hidden"></rect></g></svg></g></svg>