<svg xmlns="http://www.w3.org/2000/svg" xmlns:xlink="http://www.w3.org/1999/xlink" version="1.1" x="0px" y="0px" viewBox="0 0 32 40" style="enable-background:new 0 0 32 32;" xml:space="preserve"><path d="M6.684,14.963L5.36,14.954l-0.407-1.313c-0.067-0.216-0.261-0.361-0.482-0.361s-0.415,0.145-0.481,0.361l-0.413,1.322h-1.32  c-0.219,0-0.407,0.137-0.478,0.349c-0.072,0.214-0.002,0.449,0.176,0.584l1.074,0.837L2.62,18.046  c-0.068,0.22,0.011,0.454,0.197,0.584c0.182,0.127,0.411,0.121,0.587-0.012l1.066-0.812l1.067,0.811  c0.092,0.07,0.197,0.104,0.302,0.104c0.099,0,0.199-0.032,0.287-0.092c0.184-0.13,0.263-0.364,0.195-0.583l-0.402-1.338l1.067-0.812  c0.178-0.135,0.249-0.37,0.177-0.584C7.091,15.1,6.904,14.963,6.684,14.963z"/><path d="M12.448,14.962l-1.324-0.009l-0.407-1.313c-0.067-0.216-0.261-0.361-0.482-0.361S9.82,13.424,9.754,13.64l-0.413,1.322  h-1.32c-0.219,0-0.407,0.137-0.478,0.349c-0.072,0.214-0.001,0.449,0.177,0.584l1.074,0.837l-0.409,1.313  c-0.068,0.22,0.011,0.454,0.197,0.584c0.182,0.127,0.41,0.121,0.587-0.012l1.066-0.812l1.067,0.812  c0.092,0.07,0.197,0.104,0.302,0.104c0.099,0,0.199-0.032,0.286-0.093c0.184-0.13,0.263-0.364,0.195-0.583l-0.402-1.338l1.067-0.812  c0.178-0.135,0.249-0.37,0.177-0.584C12.855,15.099,12.668,14.962,12.448,14.962z"/><path d="M18.214,14.962l-1.325-0.009l-0.407-1.313c-0.067-0.216-0.261-0.361-0.482-0.361s-0.415,0.145-0.481,0.361l-0.413,1.322  h-1.32c-0.219,0-0.407,0.137-0.478,0.349c-0.072,0.214-0.001,0.449,0.177,0.584l1.072,0.837l-0.406,1.312  c-0.07,0.22,0.009,0.454,0.194,0.584c0.181,0.126,0.411,0.122,0.589-0.011l1.065-0.812l1.067,0.812  c0.092,0.07,0.197,0.104,0.302,0.104c0.1,0,0.199-0.032,0.287-0.093c0.184-0.13,0.263-0.364,0.195-0.583l-0.402-1.338l1.067-0.812  c0.178-0.134,0.249-0.369,0.177-0.584C18.62,15.099,18.433,14.962,18.214,14.962z"/><path d="M24.456,15.311c-0.072-0.212-0.259-0.349-0.478-0.349l-1.325-0.009l-0.407-1.313c-0.067-0.216-0.261-0.361-0.482-0.361  c-0.221,0-0.415,0.145-0.481,0.361l-0.413,1.322h-1.319c-0.22,0-0.408,0.137-0.479,0.349c-0.072,0.214-0.001,0.449,0.177,0.584  l1.072,0.837l-0.406,1.312c-0.07,0.22,0.009,0.454,0.194,0.584c0.088,0.062,0.187,0.093,0.287,0.093  c0.106,0,0.211-0.035,0.302-0.104l1.065-0.812l1.068,0.812c0.177,0.133,0.404,0.139,0.587,0.012c0.185-0.13,0.264-0.364,0.196-0.584  l-0.402-1.338l1.067-0.812C24.457,15.761,24.528,15.526,24.456,15.311z"/><path d="M26.161,18.721c-0.1,0-0.199-0.031-0.287-0.093c-0.185-0.13-0.264-0.364-0.194-0.584l0.406-1.312l-1.072-0.837  c-0.178-0.135-0.249-0.37-0.177-0.584c0.071-0.212,0.259-0.349,0.479-0.349h1.319l0.413-1.322c0.066-0.216,0.26-0.361,0.481-0.361  s0.415,0.145,0.482,0.361l0.407,1.313l1.325,0.009c0.219,0,0.406,0.137,0.478,0.349c0.072,0.214,0.002,0.449-0.176,0.584  l-1.068,0.812l0.402,1.338c0.068,0.22-0.011,0.454-0.196,0.584c-0.182,0.127-0.411,0.121-0.587-0.012l-1.068-0.812l-1.065,0.812  C26.372,18.686,26.267,18.721,26.161,18.721z M27.529,17.306c0.105,0,0.211,0.033,0.301,0.101l1.069,0.813l-0.404-1.338  c-0.066-0.211,0.007-0.441,0.181-0.573l1.067-0.811l-1.319-0.035c-0.221,0-0.415-0.145-0.481-0.36l-0.409-1.313  c-0.001-0.006-0.003-0.009-0.004-0.009l-0.413,1.323c-0.066,0.215-0.261,0.36-0.481,0.36h-1.319l1.068,0.846  c0.173,0.131,0.246,0.361,0.18,0.572l-0.406,1.313l1.07-0.786C27.318,17.34,27.424,17.306,27.529,17.306z"/><text x="0" y="47" fill="#000000" font-size="5px" font-weight="bold" font-family="'Helvetica Neue', Helvetica, Arial-Unicode, Arial, Sans-serif">Created by Yafet bouchagra</text><text x="0" y="52" fill="#000000" font-size="5px" font-weight="bold" font-family="'Helvetica Neue', Helvetica, Arial-Unicode, Arial, Sans-serif">from the Noun Project</text></svg>