<svg xmlns="http://www.w3.org/2000/svg" version="1.1" xmlns:xlink="http://www.w3.org/1999/xlink" xmlns:svgjs="http://svgjs.dev/svgjs" width="2000" height="646" viewBox="0 0 2000 646"><g transform="matrix(1,0,0,1,-1.2121212121212466,-0.548629662554049)"><svg viewBox="0 0 396 128" data-background-color="#f0f2ca" preserveAspectRatio="xMidYMid meet" height="646" width="2000" xmlns="http://www.w3.org/2000/svg" xmlns:xlink="http://www.w3.org/1999/xlink"><g id="tight-bounds" transform="matrix(1,0,0,1,0.2400000000000091,0.10870680620266171)"><svg viewBox="0 0 395.52 127.78258638759469" height="127.78258638759469" width="395.52"><g><svg viewBox="0 0 689.7632570936585 222.8451986917453" height="127.78258638759469" width="395.52"><g><rect width="11.696338856705298" height="222.8451986917453" x="251.92823013039484" y="0" fill="#182801" opacity="1" stroke-width="0" stroke="transparent" fill-opacity="1" class="rect-qz-0" data-fill-palette-color="primary" rx="1%" id="qz-0" data-palette-color="#182801"></rect></g><g transform="matrix(1,0,0,1,294.2432570936585,0.5543412902779608)"><svg viewBox="0 0 395.52 221.7365161111894" height="221.7365161111894" width="395.52"><g id="textblocktransform"><svg viewBox="0 0 395.52 221.7365161111894" height="221.7365161111894" width="395.52" id="textblock"><g><svg viewBox="0 0 395.52 129.69843654822333" height="129.69843654822333" width="395.52"><g transform="matrix(1,0,0,1,0,0)"><svg width="395.52" viewBox="1.4 -40 123.11 40.38" height="129.69843654822333" data-palette-color="#182801"><path d="M13.9 0L5.83 0 1.4-40 5.5-40 7.9-17.73 8.85-3.6 10.88-3.6 11.83-17.73 14.23-40 18.38-40 13.9 0ZM28.05 0.38L28.05 0.38Q24.1 0.38 22.39-1.18 20.67-2.73 20.5-6.18L20.5-6.18Q20.45-7.98 20.41-10.21 20.37-12.45 20.37-14.84 20.37-17.23 20.4-19.53 20.42-21.83 20.5-23.78L20.5-23.78Q20.67-27.33 22.44-28.85 24.2-30.38 28-30.38L28-30.38Q31.82-30.38 33.5-28.83 35.17-27.28 35.32-23.95L35.32-23.95Q35.35-23.38 35.36-21.76 35.37-20.15 35.36-18.11 35.35-16.07 35.27-14.23L35.27-14.23 24.4-14.23Q24.4-12.15 24.44-10.04 24.47-7.93 24.5-5.75L24.5-5.75Q24.55-4.05 25.37-3.4 26.2-2.75 27.97-2.75L27.97-2.75Q29.75-2.75 30.51-3.4 31.27-4.05 31.35-5.75L31.35-5.75Q31.4-6.5 31.39-7.8 31.37-9.1 31.3-10.5L31.3-10.5 35.27-10.5Q35.32-9.65 35.35-8.31 35.37-6.98 35.32-6.18L35.32-6.18Q35.15-2.68 33.51-1.15 31.87 0.38 28.05 0.38ZM24.4-17.28L24.4-17.28 31.4-17.28Q31.42-18.68 31.44-20.11 31.45-21.55 31.42-22.69 31.4-23.83 31.35-24.28L31.35-24.28Q31.25-25.98 30.45-26.64 29.65-27.3 28-27.3L28-27.3Q26.1-27.3 25.32-26.55 24.55-25.8 24.5-24.28L24.5-24.28Q24.47-22.58 24.44-20.81 24.4-19.05 24.4-17.28ZM44.2 0L40.12 0 40.12-30 44.2-30 44.2-27.03 45.05-27.03Q45.5-28.73 46.58-29.43 47.67-30.13 49.5-30.13L49.5-30.13Q49.97-30.13 50.43-30.08 50.9-30.03 51.37-30.03L51.37-30.03 51.37-26.9 49.55-26.9Q47.27-26.9 45.97-26.18 44.67-25.45 44.2-23.6L44.2-23.6 44.2 0ZM58.69 0.38L58.69 0.38Q55.94 0.38 54.63-1.11 53.32-2.6 53.19-5.95L53.19-5.95Q53.12-8 53.09-10.36 53.07-12.73 53.08-15.14 53.09-17.55 53.12-19.85 53.14-22.15 53.19-24.05L53.19-24.05Q53.29-27.5 54.73-28.94 56.17-30.38 58.79-30.38L58.79-30.38Q60.72-30.38 61.84-29.6 62.97-28.83 63.79-27.25L63.79-27.25 64.49-27.25 64.49-40 68.54-40 68.54 0 64.49 0 64.49-2.78 63.74-2.78Q62.89-1.23 61.76-0.43 60.62 0.38 58.69 0.38ZM60.09-2.68L60.09-2.68Q61.59-2.68 62.77-3.38 63.94-4.08 64.49-5.6L64.49-5.6 64.49-24.43Q63.94-25.95 62.77-26.65 61.59-27.35 60.12-27.35L60.12-27.35Q58.59-27.35 57.94-26.66 57.29-25.98 57.24-24.43L57.24-24.43Q57.12-21.33 57.08-17.98 57.04-14.63 57.08-11.48 57.12-8.33 57.19-5.8L57.19-5.8Q57.24-4.05 57.94-3.36 58.64-2.68 60.09-2.68ZM79.09 0.33L79.09 0.33Q76.32 0.33 74.79-1.14 73.27-2.6 73.04-5.58L73.04-5.58Q73.02-6.2 72.99-6.81 72.97-7.43 72.99-8.05L72.99-8.05Q73.09-9.85 73.65-11.28 74.22-12.7 75.47-13.88 76.72-15.05 78.92-16.1L78.92-16.1Q80.09-16.68 81.44-17.25 82.79-17.82 84.09-18.25L84.09-18.25 84.09-24.2Q84.09-25.85 83.4-26.58 82.72-27.3 80.94-27.3L80.94-27.3Q79.44-27.3 78.54-26.68 77.64-26.05 77.57-24.45L77.57-24.45Q77.52-23.7 77.5-22.74 77.49-21.78 77.52-20.91 77.54-20.05 77.57-19.58L77.57-19.58 73.67-19.58Q73.64-20.65 73.62-21.78 73.59-22.9 73.62-23.95L73.62-23.95Q73.72-26.15 74.47-27.58 75.22-29 76.83-29.69 78.44-30.38 81.12-30.38L81.12-30.38Q83.79-30.38 85.29-29.66 86.79-28.95 87.4-27.4 88.02-25.85 88.02-23.4L88.02-23.4 87.99 0 84.02 0 84.02-2.78 83.47-2.78Q82.82-1.33 81.93-0.5 81.04 0.33 79.09 0.33ZM80.14-2.68L80.14-2.68Q81.57-2.68 82.54-3.4 83.52-4.13 84.04-5.5L84.04-5.5 84.09-14.88Q83.09-14.58 82.04-14.1 80.99-13.63 79.69-12.83L79.69-12.83Q78.07-11.9 77.55-10.74 77.04-9.58 76.99-8.05L76.99-8.05Q76.97-7.38 76.98-6.85 76.99-6.33 77.02-5.8L77.02-5.8Q77.14-4.35 77.95-3.51 78.77-2.68 80.14-2.68ZM97.41 0L93.41 0 93.41-30 97.41-30 97.41-27.25 98.29-27.25Q99.14-28.8 100.31-29.59 101.49-30.38 103.34-30.38L103.34-30.38Q106.11-30.38 107.45-28.88 108.79-27.38 108.81-24.05L108.81-24.05 108.81 0 104.84 0 104.84-24.35Q104.81-25.95 104.11-26.65 103.41-27.35 101.89-27.35L101.89-27.35Q100.44-27.35 99.18-26.58 97.91-25.8 97.41-24.43L97.41-24.43 97.41 0ZM121.89 0.38L121.89 0.38Q117.86 0.38 116.24-1.13 114.61-2.63 114.61-6.23L114.61-6.23 114.59-26.9 112.24-26.9 112.24-30 114.71-30 114.71-38.5 118.71-38.5 118.71-30 123.91-30 123.91-26.9 118.59-26.9 118.61-5.78Q118.61-3.98 119.27-3.34 119.94-2.7 121.96-2.7L121.96-2.7Q122.71-2.7 123.25-2.74 123.79-2.78 124.51-2.85L124.51-2.85 124.51 0.13Q123.91 0.23 123.27 0.3 122.64 0.38 121.89 0.38Z" opacity="1" transform="matrix(1,0,0,1,0,0)" fill="#182801" class="wordmark-text-0" data-fill-palette-color="primary" id="text-0"></path></svg></g></svg></g><g transform="matrix(1,0,0,1,0,160.3171246547817)"><svg viewBox="0 0 281.808 61.41939145640769" height="61.41939145640769" width="281.808"><g transform="matrix(1,0,0,1,0,0)"><svg width="281.808" viewBox="1.93 -40 225.135 49.08" height="61.41939145640769" data-palette-color="#182801"><path d="M2.05-7.85L2.05-7.85Q2-9.28 1.96-11.13 1.93-12.98 1.93-14.95 1.93-16.93 1.96-18.8 2-20.68 2.05-22.18L2.05-22.18Q2.27-26.3 3.85-28.23 5.43-30.15 9.25-30.4L9.25-30.4 9.25-26.15Q8.33-25.93 7.91-25.28 7.5-24.63 7.45-23.48L7.45-23.48Q7.4-21.28 7.36-19.18 7.33-17.07 7.33-15 7.33-12.93 7.36-10.83 7.4-8.72 7.45-6.55L7.45-6.55Q7.5-5.38 7.93-4.73 8.35-4.08 9.25-3.85L9.25-3.85 9.25 0.4Q5.45 0.15 3.86-1.78 2.27-3.7 2.05-7.85ZM11.6 0.4L11.6 0.4 11.6-3.83Q12.53-4.05 12.95-4.71 13.38-5.38 13.4-6.55L13.4-6.55Q13.48-8.75 13.51-10.85 13.55-12.95 13.55-15.03 13.55-17.1 13.51-19.19 13.48-21.28 13.4-23.48L13.4-23.48Q13.38-24.68 12.96-25.31 12.55-25.95 11.6-26.18L11.6-26.18 11.6-30.4Q14.18-30.25 15.71-29.34 17.25-28.43 17.96-26.68 18.68-24.93 18.82-22.18L18.82-22.18Q18.88-20.73 18.9-18.89 18.93-17.05 18.93-15.06 18.93-13.08 18.9-11.21 18.88-9.35 18.82-7.85L18.82-7.85Q18.68-5.1 17.96-3.33 17.25-1.55 15.71-0.65 14.18 0.25 11.6 0.4ZM28.67 0L23.27 0 23.27-30 28.67-30 28.67 0ZM31-25.48L31-25.48 31-29.38Q31.92-30.13 33.6-30.13L33.6-30.13Q34.12-30.13 34.63-30.1 35.15-30.08 35.45-30.05L35.45-30.05 35.45-25.85 33.65-25.85Q32.05-25.85 31-25.48ZM44.55 5.2L44.55 9.08Q41.32 8.88 39.63 7.8 37.95 6.73 37.65 4.93L37.65 4.93Q37.57 4.55 37.55 4.17 37.52 3.8 37.57 3.43L37.57 3.43Q37.72 2.15 38.51 1.3 39.3 0.45 40.82 0.18L40.82 0.18 40.82-0.65Q38.02-1.2 37.8-3.4L37.8-3.4Q37.72-3.85 37.72-4.05 37.72-4.25 37.8-4.65L37.8-4.65Q37.9-5.68 38.72-6.46 39.55-7.25 40.87-7.43L40.87-7.43 40.87-8.25Q39.15-9.05 38.31-10.69 37.47-12.33 37.32-14.98L37.32-14.98Q37.3-16.15 37.27-17.09 37.25-18.03 37.25-18.91 37.25-19.8 37.27-20.75 37.3-21.7 37.32-22.85L37.32-22.85Q37.57-26.63 39.26-28.4 40.95-30.18 44.55-30.4L44.55-30.4 44.55-26.18Q43.57-25.95 43.09-25.3 42.62-24.65 42.57-23.48L42.57-23.48Q42.52-21.9 42.5-20.33 42.47-18.75 42.5-17.24 42.52-15.73 42.57-14.35L42.57-14.35Q42.62-13.18 43.11-12.51 43.59-11.85 44.55-11.63L44.55-11.63 44.55-7.35Q43.22-7.23 42.66-6.83 42.09-6.43 42.09-5.73L42.09-5.73Q42.09-5.68 42.09-5.63 42.09-5.58 42.09-5.5L42.09-5.5Q42.09-4.8 42.63-4.46 43.17-4.13 44.55-3.98L44.55-3.98 44.55-0.15Q43.37-0.03 42.62 0.45 41.87 0.93 41.72 1.9L41.72 1.9Q41.65 2.23 41.65 2.55 41.65 2.88 41.72 3.23L41.72 3.23Q41.87 4.17 42.62 4.63 43.37 5.08 44.55 5.2L44.55 5.2ZM46.9 9.08L46.9 9.08 46.9 5.33Q48.65 5.28 49.62 4.76 50.59 4.25 50.82 3.13L50.82 3.13Q50.97 2.78 50.96 2.44 50.95 2.1 50.8 1.75L50.8 1.75Q50.57 0.65 49.61 0.23 48.65-0.2 46.9-0.25L46.9-0.25 46.9-3.88Q50.87-3.73 52.91-2.39 54.95-1.05 55.32 1.65L55.32 1.65Q55.37 2 55.4 2.48 55.42 2.95 55.32 3.53L55.32 3.53Q54.95 6.5 52.62 7.73 50.3 8.95 46.9 9.08ZM46.9-7.43L46.9-7.43 46.9-11.63Q47.82-11.85 48.31-12.51 48.8-13.18 48.84-14.35L48.84-14.35Q48.92-15.73 48.93-17.24 48.95-18.75 48.93-20.33 48.92-21.9 48.84-23.48L48.84-23.48Q48.8-24.65 48.32-25.3 47.84-25.95 46.9-26.18L46.9-26.18 46.9-30.4Q51.45-30.1 53-27.25L53-27.25 53.77-27.25Q53.92-28.63 54.78-29.3 55.65-29.98 57.22-30L57.22-30 57.22-25.85 56.59-25.85Q55.34-25.85 54.75-25.1 54.15-24.35 54.15-22.73L54.15-22.73 54.15-21.38Q54.15-20.15 54.16-19.16 54.17-18.18 54.16-17.19 54.15-16.2 54.09-14.98L54.09-14.98Q53.9-11.23 52.21-9.44 50.52-7.65 46.9-7.43ZM58.47-6.05L58.47-6.05Q58.44-6.6 58.43-7.25 58.42-7.9 58.44-8.45L58.44-8.45Q58.57-10.35 59.22-11.78 59.87-13.2 61.22-14.33 62.57-15.45 64.84-16.48L64.84-16.48Q65.49-16.78 66.12-17.04 66.74-17.3 67.37-17.55L67.37-17.55 67.37-13.9Q67.09-13.75 66.79-13.56 66.49-13.38 66.17-13.15L66.17-13.15Q64.79-12.33 64.33-11.11 63.87-9.9 63.79-8.45L63.79-8.45Q63.77-7.98 63.77-7.48 63.77-6.98 63.79-6.48L63.79-6.48Q63.92-5.08 64.59-4.34 65.27-3.6 66.47-3.6L66.47-3.6Q66.92-3.6 67.37-3.75L67.37-3.75 67.37-0.7Q66.27 0.35 64.32 0.35L64.32 0.35Q61.44 0.35 60.09-1.16 58.74-2.68 58.47-6.05ZM64.47-19.13L59.22-19.13Q59.19-19.73 59.17-20.94 59.14-22.15 59.17-23.05L59.17-23.05Q59.32-26.63 60.84-28.4 62.37-30.18 66.04-30.4L66.04-30.4 66.04-26.2Q65.27-26.03 64.89-25.43 64.52-24.83 64.47-23.65L64.47-23.65Q64.44-23.18 64.43-22.33 64.42-21.48 64.43-20.6 64.44-19.73 64.47-19.13L64.47-19.13ZM75.04 0L69.72 0 69.72-23.48Q69.72-24.53 69.42-25.18 69.12-25.83 68.39-26.08L68.39-26.08 68.39-30.4Q72.19-30.15 73.66-28.21 75.12-26.28 75.09-22.25L75.09-22.25 75.04 0ZM85.17 0L79.77 0 79.77-30 85.17-30 85.17 0ZM96.92 0L91.52 0 91.52-23.68Q91.49-25.1 90.88-25.75 90.27-26.4 89.02-26.4L89.02-26.4Q88.62-26.4 88.24-26.33 87.87-26.25 87.49-26.08L87.49-26.08 87.49-28.93Q88.17-29.65 89.03-30.04 89.89-30.43 91.22-30.43L91.22-30.43Q93.97-30.43 95.43-28.76 96.89-27.1 96.92-23.23L96.92-23.23 96.92 0ZM107.49-35.18L101.11-35.18 101.11-40 107.49-40 107.49-35.18ZM106.99 0L101.59 0 101.59-30 106.99-30 106.99 0ZM111.39-7.08L111.39-7.08Q111.34-8.5 111.31-10.56 111.29-12.63 111.29-14.89 111.29-17.15 111.31-19.25 111.34-21.35 111.39-22.85L111.39-22.85Q111.64-26.63 113.26-28.39 114.89-30.15 118.44-30.4L118.44-30.4 118.44-26.18Q117.59-25.98 117.21-25.39 116.84-24.8 116.81-23.65L116.81-23.65Q116.76-21.43 116.74-19.29 116.71-17.15 116.71-15.05 116.71-12.95 116.74-10.84 116.76-8.72 116.81-6.53L116.81-6.53Q116.84-5.33 117.21-4.7 117.59-4.08 118.44-3.85L118.44-3.85 118.44 0.4Q114.86 0.13 113.22-1.61 111.59-3.35 111.39-7.08ZM120.76 0.4L120.76 0.4 120.76-3.83Q121.56-4.08 121.94-4.7 122.31-5.33 122.36-6.53L122.36-6.53Q122.39-7.3 122.39-8.44 122.39-9.58 122.34-10.98L122.34-10.98 127.61-10.98Q127.66-10.28 127.69-9.13 127.71-7.98 127.66-7.08L127.66-7.08Q127.49-3.35 125.89-1.59 124.29 0.18 120.76 0.4ZM127.61-19.13L122.34-19.13Q122.36-19.75 122.37-20.63 122.39-21.5 122.37-22.33 122.36-23.15 122.36-23.65L122.36-23.65Q122.31-24.8 121.94-25.38 121.56-25.95 120.76-26.15L120.76-26.15 120.76-30.4Q124.31-30.15 125.91-28.43 127.51-26.7 127.66-23.05L127.66-23.05Q127.69-22.15 127.67-20.99 127.66-19.83 127.61-19.13L127.61-19.13ZM141.73-7.08L141.73-7.08Q141.71-7.98 141.72-9.13 141.73-10.28 141.78-10.98L141.78-10.98 146.53-10.98Q146.51-9.58 146.51-8.44 146.51-7.3 146.53-6.53L146.53-6.53Q146.56-5.33 146.96-4.7 147.36-4.08 148.16-3.85L148.16-3.85 148.16 0.4Q144.78 0.15 143.33-1.6 141.88-3.35 141.73-7.08ZM150.51 0.4L150.51 0.4 150.51-3.8Q151.51-4 151.94-4.64 152.38-5.28 152.41-6.53L152.41-6.53Q152.41-7.2 152.41-7.54 152.41-7.88 152.42-8.19 152.43-8.5 152.41-9.13L152.41-9.13Q152.41-10.43 152.01-11.19 151.61-11.95 150.53-12.28L150.53-12.28 147.58-13.18Q145.61-13.8 144.28-14.71 142.96-15.63 142.29-17.07 141.63-18.53 141.61-20.73L141.61-20.73Q141.61-21.28 141.61-21.78 141.61-22.28 141.63-22.83L141.63-22.83Q141.66-26.6 143.18-28.39 144.71-30.18 148.43-30.4L148.43-30.4 148.43-26.18Q147.61-26 147.27-25.4 146.93-24.8 146.91-23.65L146.91-23.65Q146.88-22.93 146.86-22.49 146.83-22.05 146.86-21.15L146.86-21.15Q146.86-19.75 147.21-18.85 147.56-17.95 148.86-17.55L148.86-17.55 151.51-16.82Q154.48-16.07 155.96-14.39 157.43-12.7 157.43-9.4L157.43-9.4Q157.43-8.83 157.42-8.18 157.41-7.53 157.38-6.93L157.38-6.93Q157.36-3.28 155.77-1.55 154.18 0.18 150.51 0.4ZM157.13-19.13L152.21-19.13Q152.23-19.75 152.24-20.63 152.26-21.5 152.24-22.33 152.23-23.15 152.21-23.65L152.21-23.65Q152.18-24.78 151.86-25.36 151.53-25.95 150.78-26.15L150.78-26.15 150.78-30.4Q154.18-30.15 155.61-28.41 157.03-26.68 157.18-23.05L157.18-23.05Q157.18-22.48 157.18-21.73 157.18-20.98 157.17-20.28 157.16-19.58 157.13-19.13L157.13-19.13ZM162.13-25.85L159.65-25.85 159.65-30 162.13-30 162.13-38.5 167.53-38.5 167.53-6.48Q167.53-4.9 168.09-4.29 168.65-3.68 170.58-3.68L170.58-3.68Q171.23-3.68 171.73-3.7 172.23-3.73 172.85-3.78L172.85-3.78 172.85 0.18Q172.35 0.3 171.77 0.36 171.18 0.43 170.55 0.43L170.55 0.43Q165.93 0.43 164.03-1.33 162.13-3.08 162.13-7.08L162.13-7.08 162.13-25.85ZM172.35-25.85L169.65-25.85 169.65-30 172.35-30 172.35-25.85ZM175.15-7.85L175.15-7.85Q175.1-9.28 175.06-11.13 175.03-12.98 175.03-14.95 175.03-16.93 175.06-18.8 175.1-20.68 175.15-22.18L175.15-22.18Q175.38-26.3 176.95-28.23 178.53-30.15 182.35-30.4L182.35-30.4 182.35-26.15Q181.43-25.93 181.01-25.28 180.6-24.63 180.55-23.48L180.55-23.48Q180.5-21.28 180.46-19.18 180.43-17.07 180.43-15 180.43-12.93 180.46-10.83 180.5-8.72 180.55-6.55L180.55-6.55Q180.6-5.38 181.03-4.73 181.45-4.08 182.35-3.85L182.35-3.85 182.35 0.4Q178.55 0.15 176.96-1.78 175.38-3.7 175.15-7.85ZM184.7 0.4L184.7 0.4 184.7-3.83Q185.63-4.05 186.05-4.71 186.48-5.38 186.5-6.55L186.5-6.55Q186.58-8.75 186.61-10.85 186.65-12.95 186.65-15.03 186.65-17.1 186.61-19.19 186.58-21.28 186.5-23.48L186.5-23.48Q186.48-24.68 186.06-25.31 185.65-25.95 184.7-26.18L184.7-26.18 184.7-30.4Q187.28-30.25 188.81-29.34 190.35-28.43 191.06-26.68 191.78-24.93 191.93-22.18L191.93-22.18Q191.98-20.73 192-18.89 192.03-17.05 192.03-15.06 192.03-13.08 192-11.21 191.98-9.35 191.93-7.85L191.93-7.85Q191.78-5.1 191.06-3.33 190.35-1.55 188.81-0.65 187.28 0.25 184.7 0.4ZM201.77 0L196.37 0 196.37-30 201.77-30 201.77 0ZM204.1-25.48L204.1-25.48 204.1-29.38Q205.02-30.13 206.7-30.13L206.7-30.13Q207.22-30.13 207.74-30.1 208.25-30.08 208.55-30.05L208.55-30.05 208.55-25.85 206.75-25.85Q205.15-25.85 204.1-25.48ZM210.75-7.08L210.75-7.08Q210.7-8.5 210.67-10.56 210.65-12.63 210.65-14.89 210.65-17.15 210.67-19.25 210.7-21.35 210.75-22.85L210.75-22.85Q211-26.63 212.63-28.39 214.27-30.15 217.8-30.38L217.8-30.38 217.8-26.18Q216.97-25.95 216.58-25.35 216.2-24.75 216.17-23.65L216.17-23.65Q216.12-21.43 216.1-19.3 216.07-17.18 216.07-15.08 216.07-12.98 216.1-10.86 216.12-8.75 216.17-6.53L216.17-6.53Q216.2-5.33 216.57-4.7 216.95-4.08 217.8-3.85L217.8-3.85 217.8 0.4Q214.22 0.13 212.58-1.61 210.95-3.35 210.75-7.08ZM220.15 0.4L220.15 0.4 220.15-3.83Q220.92-4.08 221.28-4.7 221.65-5.33 221.72-6.53L221.72-6.53Q221.77-7.3 221.76-8.44 221.75-9.58 221.7-10.98L221.7-10.98 226.97-10.98Q227.02-10.28 227.05-9.13 227.07-7.98 227.02-7.08L227.02-7.08Q226.85-3.35 225.25-1.59 223.65 0.18 220.15 0.4ZM226.97-14.03L218.25-14.03 218.25-17.82 221.75-17.82Q221.77-19.18 221.77-20.34 221.77-21.5 221.76-22.36 221.75-23.23 221.72-23.65L221.72-23.65Q221.65-24.7 221.27-25.31 220.9-25.93 220.15-26.15L220.15-26.15 220.15-30.38Q223.65-30.15 225.23-28.43 226.82-26.7 227.02-23.05L227.02-23.05Q227.05-22.4 227.06-20.96 227.07-19.53 227.06-17.7 227.05-15.88 226.97-14.03L226.97-14.03Z" opacity="1" transform="matrix(1,0,0,1,0,0)" fill="#182801" class="slogan-text-1" data-fill-palette-color="secondary" id="text-1"></path></svg></g></svg></g></svg></g></svg></g><g transform="matrix(1,0,0,1,0,0.5543412902779465)"><svg viewBox="0 0 221.30954202383646 221.73651611118942" height="221.73651611118942" width="221.30954202383646"><g><svg xmlns="http://www.w3.org/2000/svg" xmlns:xlink="http://www.w3.org/1999/xlink" version="1.1" x="0" y="0" viewBox="1.807200665735313 1.760525928086257 48.385598362229004 48.47894904432257" enable-background="new 0 0 52 52" xml:space="preserve" height="221.73651611118942" width="221.30954202383646" class="icon-icon-0" data-fill-palette-color="accent" id="icon-0"><g fill="#1dbf72" data-fill-palette-color="accent"><g fill="#1dbf72" data-fill-palette-color="accent"><path d="M33.418 12.38c2.019 1.383 4.39 3.121 5.668 5.3 2.437 4.155-0.144 7.755-3.802 9.531-2.39 1.161-4.444 2.263-6.373 4.13-3.091 2.993-5.683 4.939-9.366 7.109-2.629 1.548-5.006 3.469-7.41 5.336-1.286 0.999-7.927 7.55-6.884-0.902 0.155-1.256 2.113-3.203 2.791-4.182 2.327-3.359 5.022-6.386 7.529-9.602 2.199-2.821 4.096-5.849 5.962-8.895 1.86-3.037 7.656-14.728 12.034-8.233 0.895 1.327 3.061 0.077 2.159-1.262-7.479-11.093-17.046 9.742-20.144 14.164C13.299 28.131-5.734 47.254 5.137 50.111c4.04 1.062 8.872-4.744 11.725-6.843 2.886-2.124 6.223-3.449 9.091-5.53 2.192-1.59 3.672-3.879 5.738-5.595 3.776-3.136 11.058-3.979 11.767-9.903 0.597-4.991-5.221-9.581-8.778-12.018C33.35 9.31 32.098 11.476 33.418 12.38L33.418 12.38z" fill="#1dbf72" data-fill-palette-color="accent"></path></g><g fill="#1dbf72" data-fill-palette-color="accent"><path d="M45.655 4.176c-2.672 2.797-5.344 5.595-8.016 8.392-1.111 1.163 0.654 2.934 1.768 1.767 2.672-2.797 5.344-5.595 8.016-8.391C48.534 4.78 46.769 3.01 45.655 4.176L45.655 4.176z" fill="#1dbf72" data-fill-palette-color="accent"></path></g><g fill="#1dbf72" data-fill-palette-color="accent"><path d="M37.038 4.205c0.888 0.194 0.949 3.087 0.965 3.797 0.033 1.5-0.274 2.966-0.876 4.337-0.641 1.459 1.512 2.733 2.158 1.262 0.991-2.255 1.414-4.586 1.107-7.046-0.221-1.768-0.638-4.312-2.689-4.761C36.135 1.451 35.465 3.86 37.038 4.205L37.038 4.205z" fill="#1dbf72" data-fill-palette-color="accent"></path></g><g fill="#1dbf72" data-fill-palette-color="accent"><path d="M49.365 13.594c-0.742-0.307-1.335-0.889-2.062-1.228-0.753-0.352-1.557-0.479-2.376-0.561-1.806-0.179-3.642-0.217-5.365 0.415-1.498 0.549-0.851 2.966 0.664 2.41 1.482-0.543 3.141-0.531 4.701-0.325 1.463 0.193 2.449 1.151 3.773 1.7C50.185 16.62 50.833 14.202 49.365 13.594L49.365 13.594z" fill="#1dbf72" data-fill-palette-color="accent"></path></g><g fill="#1dbf72" data-fill-palette-color="accent"><path d="M18.555 24.256c0.861 0.38 1.755 1.472 2.271 2.249 0.614 0.924 1.185 1.773 2.164 2.361 1.383 0.83 2.641-1.331 1.262-2.159-0.915-0.549-1.365-1.663-2.058-2.445-0.702-0.794-1.383-1.726-2.377-2.165C18.358 21.454 17.084 23.608 18.555 24.256L18.555 24.256z" fill="#1dbf72" data-fill-palette-color="accent"></path></g><g fill="#1dbf72" data-fill-palette-color="accent"><path d="M14.879 29.415c0.923 0.554 1.423 1.725 1.96 2.613 0.832 1.374 2.995 0.119 2.159-1.262-0.786-1.298-1.515-2.703-2.857-3.509C14.758 26.426 13.5 28.587 14.879 29.415L14.879 29.415z" fill="#1dbf72" data-fill-palette-color="accent"></path></g><g fill="#1dbf72" data-fill-palette-color="accent"><path d="M10.89 34.686c0.346 0.368 0.681 0.747 0.984 1.152 0.403 0.54 1.081 0.816 1.71 0.449 0.532-0.311 0.855-1.166 0.448-1.71-0.431-0.577-0.881-1.134-1.374-1.659C11.553 31.744 9.788 33.514 10.89 34.686L10.89 34.686z" fill="#1dbf72" data-fill-palette-color="accent"></path></g></g></svg></g></svg></g></svg></g><defs></defs></svg><rect width="395.52" height="127.78258638759469" fill="none" stroke="none" visibility="hidden"></rect></g></svg></g></svg>