<svg xmlns="http://www.w3.org/2000/svg" version="1.1" xmlns:xlink="http://www.w3.org/1999/xlink" xmlns:svgjs="http://svgjs.dev/svgjs" width="2000" height="671" viewBox="0 0 2000 671"><g transform="matrix(1,0,0,1,-1.2121212121212466,0.9022001546416618)"><svg viewBox="0 0 396 133" data-background-color="#f0f2ca" preserveAspectRatio="xMidYMid meet" height="671" width="2000" xmlns="http://www.w3.org/2000/svg" xmlns:xlink="http://www.w3.org/1999/xlink"><g id="tight-bounds" transform="matrix(1,0,0,1,0.2400000000000091,-0.17882655822256766)"><svg viewBox="0 0 395.52 133.3576531164451" height="133.3576531164451" width="395.52"><g><svg viewBox="0 0 689.7554480757175 232.56514911928525" height="133.3576531164451" width="395.52"><g><rect width="10.147045333009654" height="232.56514911928525" x="257.52545684477684" y="0" fill="#182801" opacity="1" stroke-width="0" stroke="transparent" fill-opacity="1" class="rect-qz-0" data-fill-palette-color="primary" rx="1%" id="qz-0" data-palette-color="#182801"></rect></g><g transform="matrix(1,0,0,1,294.2354480757175,0.5785202714409934)"><svg viewBox="0 0 395.52 231.40810857640327" height="231.40810857640327" width="395.52"><g id="textblocktransform"><svg viewBox="0 0 395.52 231.40810857640327" height="231.40810857640327" width="395.52" id="textblock"><g><svg viewBox="0 0 395.52 112.51862068965515" height="112.51862068965515" width="395.52"><g transform="matrix(1,0,0,1,0,0)"><svg width="395.52" viewBox="1.07 -40 142.09 40.43" height="112.51862068965515" data-palette-color="#182801"><path d="M16.78 0L6.18 0 1.07-40 7-40 9.68-18.82 10.38-5.1 12.58-5.1 13.3-18.82 15.95-40 21.9-40 16.78 0ZM32.52 0.43L32.52 0.43Q27.77 0.43 25.73-1.4 23.7-3.23 23.45-7.28L23.45-7.28Q23.4-8.78 23.36-10.81 23.32-12.85 23.32-15.05 23.32-17.25 23.36-19.25 23.4-21.25 23.45-22.65L23.45-22.65Q23.72-26.85 25.82-28.64 27.92-30.43 32.45-30.43L32.45-30.43Q37.02-30.43 39.05-28.65 41.07-26.88 41.27-22.88L41.27-22.88Q41.3-22.28 41.31-20.79 41.32-19.3 41.31-17.45 41.3-15.6 41.22-13.98L41.22-13.98 29.15-13.98Q29.15-12.23 29.19-10.41 29.22-8.6 29.27-6.65L29.27-6.65Q29.32-5.15 30.07-4.54 30.82-3.93 32.5-3.93L32.5-3.93Q34.12-3.93 34.78-4.54 35.45-5.15 35.52-6.68L35.52-6.68Q35.57-7.43 35.59-8.54 35.6-9.65 35.52-11.08L35.52-11.08 41.22-11.08Q41.27-10.5 41.3-9.3 41.32-8.1 41.27-7.28L41.27-7.28Q41.07-3.15 39.06-1.36 37.05 0.43 32.52 0.43ZM29.17-18.07L29.17-18.07 35.57-18.07Q35.6-19.2 35.6-20.31 35.6-21.43 35.59-22.28 35.57-23.13 35.52-23.48L35.52-23.48Q35.45-24.93 34.73-25.51 34.02-26.1 32.45-26.1L32.45-26.1Q30.72-26.1 30.02-25.46 29.32-24.83 29.27-23.48L29.27-23.48Q29.25-22.1 29.21-20.75 29.17-19.4 29.17-18.07ZM51.5 0L45.62 0 45.62-30 51.5-30 51.5-26.63 52.59-26.63Q52.97-28.6 54.11-29.38 55.25-30.15 57.12-30.15L57.12-30.15Q57.7-30.15 58.25-30.11 58.8-30.08 59.22-30.05L59.22-30.05 59.22-25.63 57.2-25.63Q54.75-25.63 53.33-24.9 51.92-24.18 51.5-22.35L51.5-22.35 51.5 0ZM67.32 0.43L67.32 0.43Q64.29 0.43 62.76-1.29 61.22-3 61.02-6.95L61.02-6.95Q60.94-8.6 60.92-10.74 60.89-12.88 60.91-15.13 60.92-17.38 60.94-19.44 60.97-21.5 61.02-23.05L61.02-23.05Q61.19-27.05 62.83-28.74 64.47-30.43 67.42-30.43L67.42-30.43Q69.67-30.43 70.84-29.56 72.02-28.7 72.99-27L72.99-27 73.89-27 73.89-40 79.72-40 79.72 0 73.89 0 73.89-3.03 72.94-3.03Q71.99-1.33 70.76-0.45 69.52 0.43 67.32 0.43ZM69.59-3.8L69.59-3.8Q70.92-3.8 72.14-4.45 73.37-5.1 73.89-6.35L73.89-6.35 73.89-23.68Q73.37-24.93 72.14-25.56 70.92-26.2 69.62-26.2L69.62-26.2Q68.22-26.2 67.58-25.58 66.94-24.95 66.87-23.68L66.87-23.68Q66.74-20.85 66.7-17.84 66.67-14.83 66.7-11.91 66.74-9 66.84-6.55L66.84-6.55Q66.92-5.08 67.56-4.44 68.19-3.8 69.59-3.8ZM89.99 0.35L89.99 0.35Q86.84 0.35 85.23-1.19 83.62-2.73 83.34-6.2L83.34-6.2Q83.31-6.73 83.3-7.38 83.29-8.03 83.31-8.53L83.31-8.53Q83.47-10.45 84.15-11.88 84.84-13.3 86.34-14.43 87.84-15.55 90.37-16.57L90.37-16.57Q91.72-17.1 93.05-17.55 94.39-18 95.92-18.43L95.92-18.43 95.92-23.25Q95.92-24.75 95.19-25.43 94.47-26.1 92.81-26.1L92.81-26.1Q91.39-26.1 90.6-25.53 89.81-24.95 89.74-23.55L89.74-23.55Q89.72-23.05 89.7-22.09 89.69-21.13 89.7-20.23 89.72-19.33 89.74-19L89.74-19 84.17-19Q84.14-19.7 84.12-20.78 84.09-21.85 84.12-22.88L84.12-22.88Q84.24-25.5 85.1-27.16 85.97-28.83 87.88-29.63 89.79-30.43 93.02-30.43L93.02-30.43Q96.29-30.43 98.15-29.56 100.02-28.7 100.78-26.84 101.54-24.98 101.54-22L101.54-22 101.52 0 95.81 0 95.81-3.03 94.97-3.03Q94.17-1.35 93.13-0.5 92.09 0.35 89.99 0.35ZM92.09-3.8L92.09-3.8Q93.37-3.8 94.34-4.45 95.31-5.1 95.84-6.25L95.84-6.25 95.89-14.38Q94.89-14.1 93.84-13.74 92.79-13.38 91.72-12.8L91.72-12.8Q90.12-12.03 89.63-10.94 89.14-9.85 89.09-8.53L89.09-8.53Q89.06-7.88 89.08-7.5 89.09-7.13 89.12-6.6L89.12-6.6Q89.24-5.28 89.99-4.54 90.74-3.8 92.09-3.8ZM112.31 0L106.56 0 106.56-30 112.31-30 112.31-27 113.46-27Q114.44-28.68 115.66-29.55 116.89-30.43 119.06-30.43L119.06-30.43Q122.14-30.43 123.73-28.7 125.31-26.98 125.31-23.05L125.31-23.05 125.31 0 119.59 0 119.59-23.53Q119.56-24.93 118.86-25.56 118.16-26.2 116.71-26.2L116.71-26.2Q115.41-26.2 114.11-25.53 112.81-24.85 112.31-23.68L112.31-23.68 112.31 0ZM140.51 0.43L140.51 0.43Q135.49 0.43 133.37-1.35 131.26-3.13 131.26-7.35L131.26-7.35 131.21-25.63 128.54-25.63 128.54-30 131.36-30 131.36-38.5 137.16-38.5 137.16-30 142.59-30 142.59-25.63 137.01-25.63 137.06-6.68Q137.06-5.03 137.81-4.45 138.56-3.88 140.54-3.88L140.54-3.88Q141.26-3.88 141.85-3.91 142.44-3.95 143.16-3.98L143.16-3.98 143.16 0.18Q142.56 0.28 141.92 0.35 141.29 0.43 140.51 0.43Z" opacity="1" transform="matrix(1,0,0,1,0,0)" fill="#182801" class="wordmark-text-0" data-fill-palette-color="primary" id="text-0"></path></svg></g></svg></g><g transform="matrix(1,0,0,1,0,139.08156658758617)"><svg viewBox="0 0 395.52 92.32654198881708" height="92.32654198881708" width="395.52"><g transform="matrix(1,0,0,1,0,0)"><svg width="395.52" viewBox="2.1 -40 208.06249999999997 48.57999999999999" height="92.32654198881708" data-palette-color="#182801"><path d="M2.23-7L2.23-7Q2.18-8.72 2.14-10.76 2.1-12.8 2.1-14.95 2.1-17.1 2.13-19.16 2.15-21.23 2.23-23L2.23-23Q2.4-26.68 3.79-28.39 5.18-30.1 8.53-30.35L8.53-30.35 8.53-26.88Q7.53-26.68 7.08-25.99 6.63-25.3 6.58-24L6.58-24Q6.53-21.58 6.49-19.36 6.45-17.15 6.45-15 6.45-12.85 6.49-10.64 6.53-8.43 6.58-6L6.58-6Q6.63-4.7 7.08-4.03 7.53-3.35 8.53-3.13L8.53-3.13 8.53 0.35Q5.18 0.1 3.79-1.61 2.4-3.33 2.23-7ZM10.78 0.35L10.78 0.35 10.78-3.1Q11.8-3.33 12.25-4.01 12.7-4.7 12.73-6L12.73-6Q12.8-8.45 12.85-10.65 12.9-12.85 12.9-15 12.9-17.15 12.85-19.36 12.8-21.58 12.73-24L12.73-24Q12.7-25.33 12.25-26 11.8-26.68 10.78-26.9L10.78-26.9 10.78-30.35Q13.05-30.2 14.39-29.39 15.73-28.58 16.35-27.01 16.98-25.45 17.1-23L17.1-23Q17.15-21.28 17.19-19.23 17.23-17.18 17.23-15.04 17.23-12.9 17.19-10.84 17.15-8.78 17.1-7L17.1-7Q16.98-4.58 16.35-3 15.73-1.43 14.39-0.61 13.05 0.2 10.78 0.35ZM26.25 0L21.9 0 21.9-30 26.25-30 26.25 0ZM28.5-26.23L28.5-26.23 28.5-29.45Q29.4-30.1 30.95-30.1L30.95-30.1Q31.42-30.1 31.9-30.08 32.37-30.05 32.67-30.03L32.67-30.03 32.67-26.6 31-26.6Q29.5-26.6 28.5-26.23ZM41.22 5.4L41.22 8.58Q38.27 8.4 36.7 7.38 35.12 6.35 34.9 4.48L34.9 4.48Q34.85 4.15 34.82 3.83 34.8 3.5 34.85 3.15L34.85 3.15Q34.95 1.8 35.77 0.98 36.6 0.15 38-0.1L38-0.1 38-0.83Q35.45-1.48 35.25-3.5L35.25-3.5Q35.22-3.88 35.22-4.04 35.22-4.2 35.25-4.55L35.25-4.55Q35.35-5.55 36.1-6.31 36.85-7.08 38-7.23L38-7.23 38-7.98Q36.5-8.7 35.76-10.18 35.02-11.65 34.9-14.03L34.9-14.03Q34.85-15.43 34.82-16.54 34.8-17.65 34.8-18.7 34.8-19.75 34.82-20.9 34.85-22.05 34.9-23.53L34.9-23.53Q35.1-26.93 36.56-28.53 38.02-30.13 41.22-30.35L41.22-30.35 41.22-26.9Q40.17-26.68 39.67-25.99 39.17-25.3 39.12-24L39.12-24Q39.07-22.23 39.05-20.43 39.02-18.63 39.05-16.89 39.07-15.15 39.12-13.58L39.12-13.58Q39.17-12.25 39.67-11.56 40.17-10.88 41.22-10.68L41.22-10.68 41.22-7.13Q39.95-7 39.37-6.55 38.8-6.1 38.8-5.38L38.8-5.38Q38.8-5.3 38.8-5.24 38.8-5.18 38.8-5.1L38.8-5.1Q38.8-4.35 39.32-3.99 39.85-3.63 41.22-3.48L41.22-3.48 41.22-0.3Q39.95-0.2 39.16 0.3 38.37 0.8 38.27 2L38.27 2Q38.2 2.3 38.2 2.59 38.2 2.88 38.27 3.18L38.27 3.18Q38.37 4.33 39.17 4.8 39.97 5.28 41.22 5.4L41.22 5.4ZM43.47 8.58L43.47 8.58 43.47 5.5Q45.15 5.43 46.12 4.9 47.1 4.38 47.27 3.1L47.27 3.1Q47.4 2.8 47.38 2.5 47.37 2.2 47.27 1.88L47.27 1.88Q47.1 0.6 46.13 0.16 45.17-0.28 43.47-0.35L43.47-0.35 43.47-3.35Q47-3.18 48.82-1.98 50.65-0.78 50.95 1.83L50.95 1.83Q51 2.13 51.01 2.53 51.02 2.93 50.95 3.4L50.95 3.4Q50.67 6.18 48.61 7.31 46.55 8.45 43.47 8.58ZM43.47-7.23L43.47-7.23 43.47-10.68Q44.47-10.88 44.97-11.56 45.47-12.25 45.55-13.58L45.55-13.58Q45.6-15.15 45.61-16.89 45.62-18.63 45.61-20.43 45.6-22.23 45.55-24L45.55-24Q45.47-25.3 44.98-25.99 44.5-26.68 43.47-26.88L43.47-26.88 43.47-30.35Q47.57-30.05 48.9-27.35L48.9-27.35 49.6-27.35Q49.7-28.63 50.55-29.31 51.4-30 52.82-30L52.82-30 52.82-26.6 52.27-26.6Q51.07-26.6 50.45-25.75 49.82-24.9 49.82-23.15L49.82-23.15 49.82-21.85Q49.82-20.33 49.83-19.14 49.85-17.95 49.85-16.75 49.85-15.55 49.77-14.03L49.77-14.03Q49.6-10.68 48.13-9.05 46.67-7.43 43.47-7.23ZM54.29-5.7L54.29-5.7Q54.27-6.28 54.27-6.93 54.27-7.58 54.29-8.18L54.29-8.18Q54.39-10 54.96-11.43 55.52-12.85 56.73-14 57.94-15.15 60.02-16.18L60.02-16.18Q60.62-16.5 61.22-16.79 61.82-17.07 62.44-17.35L62.44-17.35 62.44-14.3Q62.12-14.1 61.76-13.88 61.39-13.65 61.02-13.35L61.02-13.35Q59.59-12.4 59.13-11.06 58.67-9.73 58.59-8.18L58.59-8.18Q58.57-7.73 58.58-7.15 58.59-6.58 58.62-6L58.62-6Q58.74-4.5 59.44-3.71 60.14-2.93 61.34-2.93L61.34-2.93Q61.92-2.93 62.44-3.13L62.44-3.13 62.44-0.58Q61.42 0.33 59.69 0.33L59.69 0.33Q57.04 0.33 55.79-1.13 54.54-2.58 54.29-5.7ZM59.17-19.45L54.94-19.45Q54.92-20.23 54.89-21.49 54.87-22.75 54.89-23.68L54.89-23.68Q55.02-26.93 56.38-28.53 57.74-30.13 60.94-30.35L60.94-30.35 60.94-26.93Q60.09-26.73 59.67-26.09 59.24-25.45 59.17-24.13L59.17-24.13Q59.14-23.6 59.13-22.75 59.12-21.9 59.13-21.01 59.14-20.13 59.17-19.45L59.17-19.45ZM69.02 0L64.69 0 64.69-24Q64.69-25.18 64.37-25.86 64.04-26.55 63.19-26.8L63.19-26.8 63.19-30.35Q66.49-30.1 67.77-28.38 69.04-26.65 69.04-23.05L69.04-23.05 69.02 0ZM78.39 0L74.04 0 74.04-30 78.39-30 78.39 0ZM89.19 0L84.84 0 84.84-24.15Q84.81-25.7 84.2-26.39 83.59-27.08 82.29-27.08L82.29-27.08Q81.87-27.08 81.45-26.98 81.04-26.88 80.64-26.7L80.64-26.7 80.64-29.1Q81.27-29.73 82.05-30.05 82.84-30.38 83.99-30.38L83.99-30.38Q86.52-30.38 87.85-28.86 89.19-27.35 89.19-23.83L89.19-23.83 89.19 0ZM99.29-35.6L93.49-35.6 93.49-40 99.29-40 99.29-35.6ZM98.56 0L94.21 0 94.21-30 98.56-30 98.56 0ZM103.31-6.4L103.31-6.4Q103.26-8.15 103.23-10.35 103.21-12.55 103.21-14.91 103.21-17.28 103.23-19.51 103.26-21.75 103.31-23.53L103.31-23.53Q103.51-26.9 104.94-28.5 106.36-30.1 109.48-30.35L109.48-30.35 109.48-26.88Q108.56-26.7 108.14-26.08 107.71-25.45 107.66-24.13L107.66-24.13Q107.61-21.68 107.58-19.44 107.56-17.2 107.56-15.04 107.56-12.88 107.58-10.65 107.61-8.43 107.66-6L107.66-6Q107.71-4.67 108.14-4.01 108.56-3.35 109.48-3.13L109.48-3.13 109.48 0.35Q106.31 0.1 104.89-1.49 103.46-3.08 103.31-6.4ZM111.73 0.35L111.73 0.35 111.73-3.13Q112.66-3.35 113.07-4 113.48-4.65 113.51-6L113.51-6Q113.53-6.88 113.55-8.04 113.56-9.2 113.48-10.63L113.48-10.63 117.73-10.63Q117.81-9.73 117.82-8.54 117.84-7.35 117.78-6.4L117.78-6.4Q117.66-3.05 116.25-1.46 114.84 0.13 111.73 0.35ZM117.73-19.45L113.48-19.45Q113.53-20.18 113.55-21.06 113.56-21.95 113.55-22.76 113.53-23.58 113.51-24.13L113.51-24.13Q113.48-25.43 113.07-26.05 112.66-26.68 111.73-26.88L111.73-26.88 111.73-30.35Q114.86-30.13 116.27-28.55 117.69-26.98 117.78-23.68L117.78-23.68Q117.84-22.75 117.82-21.56 117.81-20.38 117.73-19.45L117.73-19.45ZM131.98-6.4L131.98-6.4Q131.95-7.35 131.95-8.54 131.95-9.73 132.03-10.63L132.03-10.63 135.88-10.63Q135.83-9.2 135.83-8.04 135.83-6.88 135.85-6L135.85-6Q135.91-4.65 136.32-4 136.73-3.35 137.63-3.13L137.63-3.13 137.63 0.35Q134.63 0.1 133.35-1.49 132.08-3.08 131.98-6.4ZM139.88 0.35L139.88 0.35 139.88-3.08Q140.93-3.28 141.38-3.95 141.83-4.63 141.88-6L141.88-6Q141.88-6.7 141.89-7.15 141.91-7.6 141.91-8.03 141.91-8.45 141.91-9.08L141.91-9.08Q141.88-10.68 141.47-11.54 141.06-12.4 139.88-12.8L139.88-12.8 137.23-13.63Q135.38-14.23 134.2-15.11 133.03-16 132.48-17.43 131.93-18.85 131.88-21.05L131.88-21.05Q131.85-21.7 131.88-22.28 131.91-22.85 131.91-23.5L131.91-23.5Q131.95-26.9 133.27-28.51 134.58-30.13 137.85-30.35L137.85-30.35 137.85-26.9Q136.93-26.7 136.57-26.08 136.2-25.45 136.18-24.13L136.18-24.13Q136.16-23.35 136.13-22.81 136.1-22.28 136.13-21.38L136.13-21.38Q136.16-19.75 136.49-18.71 136.83-17.68 138.2-17.23L138.2-17.23 140.66-16.53Q143.33-15.8 144.66-14.16 145.98-12.53 145.98-9.3L145.98-9.3Q145.98-8.6 145.97-7.8 145.95-7 145.93-6.3L145.93-6.3Q145.85-3 144.48-1.44 143.1 0.13 139.88 0.35ZM145.7-19.45L141.7-19.45Q141.73-20.18 141.74-21.06 141.75-21.95 141.74-22.76 141.73-23.58 141.7-24.13L141.7-24.13Q141.68-25.4 141.33-26.04 140.98-26.68 140.1-26.88L140.1-26.88 140.1-30.35Q143.13-30.1 144.37-28.53 145.6-26.95 145.75-23.68L145.75-23.68Q145.75-23.08 145.75-22.31 145.75-21.55 145.74-20.8 145.73-20.05 145.7-19.45L145.7-19.45ZM150.78-26.6L148.53-26.6 148.53-30 150.78-30 150.78-38.5 155.15-38.5 155.15-5.95Q155.15-4.28 155.69-3.63 156.23-2.98 158.1-2.98L158.1-2.98Q158.78-2.98 159.25-3.01 159.73-3.05 160.33-3.1L160.33-3.1 160.33 0.13Q159.85 0.25 159.27 0.31 158.68 0.38 158.05 0.38L158.05 0.38Q154 0.38 152.39-1.2 150.78-2.78 150.78-6.4L150.78-6.4 150.78-26.6ZM159.83-26.6L157.13-26.6 157.13-30 159.83-30 159.83-26.6ZM162.77-7L162.77-7Q162.72-8.72 162.69-10.76 162.65-12.8 162.65-14.95 162.65-17.1 162.67-19.16 162.7-21.23 162.77-23L162.77-23Q162.95-26.68 164.34-28.39 165.72-30.1 169.07-30.35L169.07-30.35 169.07-26.88Q168.07-26.68 167.62-25.99 167.17-25.3 167.12-24L167.12-24Q167.07-21.58 167.04-19.36 167-17.15 167-15 167-12.85 167.04-10.64 167.07-8.43 167.12-6L167.12-6Q167.17-4.7 167.62-4.03 168.07-3.35 169.07-3.13L169.07-3.13 169.07 0.35Q165.72 0.1 164.34-1.61 162.95-3.33 162.77-7ZM171.32 0.35L171.32 0.35 171.32-3.1Q172.35-3.33 172.8-4.01 173.25-4.7 173.27-6L173.27-6Q173.35-8.45 173.4-10.65 173.45-12.85 173.45-15 173.45-17.15 173.4-19.36 173.35-21.58 173.27-24L173.27-24Q173.25-25.33 172.8-26 172.35-26.68 171.32-26.9L171.32-26.9 171.32-30.35Q173.6-30.2 174.94-29.39 176.27-28.58 176.9-27.01 177.52-25.45 177.65-23L177.65-23Q177.7-21.28 177.74-19.23 177.77-17.18 177.77-15.04 177.77-12.9 177.74-10.84 177.7-8.78 177.65-7L177.65-7Q177.52-4.58 176.9-3 176.27-1.43 174.94-0.61 173.6 0.2 171.32 0.35ZM186.8 0L182.45 0 182.45-30 186.8-30 186.8 0ZM189.05-26.23L189.05-26.23 189.05-29.45Q189.95-30.1 191.5-30.1L191.5-30.1Q191.97-30.1 192.45-30.08 192.92-30.05 193.22-30.03L193.22-30.03 193.22-26.6 191.55-26.6Q190.05-26.6 189.05-26.23ZM195.62-6.4L195.62-6.4Q195.57-8.15 195.54-10.35 195.52-12.55 195.52-14.91 195.52-17.28 195.54-19.51 195.57-21.75 195.62-23.53L195.62-23.53Q195.82-26.9 197.26-28.5 198.69-30.1 201.79-30.33L201.79-30.33 201.79-26.88Q200.87-26.68 200.44-26.01 200.02-25.35 199.97-24.13L199.97-24.13Q199.92-21.68 199.89-19.45 199.87-17.23 199.87-15.06 199.87-12.9 199.89-10.68 199.92-8.45 199.97-6L199.97-6Q200.02-4.65 200.44-3.99 200.87-3.33 201.79-3.13L201.79-3.13 201.79 0.35Q198.62 0.1 197.19-1.49 195.77-3.08 195.62-6.4ZM204.07 0.35L204.07 0.35 204.07-3.13Q204.94-3.35 205.36-4.01 205.77-4.67 205.82-6L205.82-6Q205.87-6.85 205.87-8.03 205.87-9.2 205.79-10.63L205.79-10.63 210.04-10.63Q210.12-9.73 210.13-8.54 210.14-7.35 210.09-6.4L210.09-6.4Q209.94-3.05 208.56-1.46 207.17 0.13 204.07 0.35ZM210.04-14.18L201.89-14.18 201.89-17.3 205.84-17.3Q205.87-18.85 205.88-20.2 205.89-21.55 205.88-22.58 205.87-23.6 205.82-24.13L205.82-24.13Q205.74-25.33 205.33-25.99 204.92-26.65 204.07-26.88L204.07-26.88 204.07-30.33Q207.14-30.1 208.54-28.54 209.94-26.98 210.09-23.68L210.09-23.68Q210.12-22.98 210.14-21.5 210.17-20.03 210.16-18.13 210.14-16.23 210.04-14.18L210.04-14.18Z" opacity="1" transform="matrix(1,0,0,1,0,0)" fill="#182801" class="slogan-text-1" data-fill-palette-color="secondary" id="text-1"></path></svg></g></svg></g></svg></g></svg></g><g transform="matrix(1,0,0,1,0,0.5785202714409934)"><svg viewBox="0 0 230.96251094684578 231.40810857640327" height="231.40810857640327" width="230.96251094684578"><g><svg xmlns="http://www.w3.org/2000/svg" xmlns:xlink="http://www.w3.org/1999/xlink" version="1.1" x="0" y="0" viewBox="1.807200665735313 1.760525928086257 48.385598362229004 48.47894904432257" enable-background="new 0 0 52 52" xml:space="preserve" height="231.40810857640327" width="230.96251094684578" class="icon-icon-0" data-fill-palette-color="accent" id="icon-0"><g fill="#1dbf72" data-fill-palette-color="accent"><g fill="#1dbf72" data-fill-palette-color="accent"><path d="M33.418 12.38c2.019 1.383 4.39 3.121 5.668 5.3 2.437 4.155-0.144 7.755-3.802 9.531-2.39 1.161-4.444 2.263-6.373 4.13-3.091 2.993-5.683 4.939-9.366 7.109-2.629 1.548-5.006 3.469-7.41 5.336-1.286 0.999-7.927 7.55-6.884-0.902 0.155-1.256 2.113-3.203 2.791-4.182 2.327-3.359 5.022-6.386 7.529-9.602 2.199-2.821 4.096-5.849 5.962-8.895 1.86-3.037 7.656-14.728 12.034-8.233 0.895 1.327 3.061 0.077 2.159-1.262-7.479-11.093-17.046 9.742-20.144 14.164C13.299 28.131-5.734 47.254 5.137 50.111c4.04 1.062 8.872-4.744 11.725-6.843 2.886-2.124 6.223-3.449 9.091-5.53 2.192-1.59 3.672-3.879 5.738-5.595 3.776-3.136 11.058-3.979 11.767-9.903 0.597-4.991-5.221-9.581-8.778-12.018C33.35 9.31 32.098 11.476 33.418 12.38L33.418 12.38z" fill="#1dbf72" data-fill-palette-color="accent"></path></g><g fill="#1dbf72" data-fill-palette-color="accent"><path d="M45.655 4.176c-2.672 2.797-5.344 5.595-8.016 8.392-1.111 1.163 0.654 2.934 1.768 1.767 2.672-2.797 5.344-5.595 8.016-8.391C48.534 4.78 46.769 3.01 45.655 4.176L45.655 4.176z" fill="#1dbf72" data-fill-palette-color="accent"></path></g><g fill="#1dbf72" data-fill-palette-color="accent"><path d="M37.038 4.205c0.888 0.194 0.949 3.087 0.965 3.797 0.033 1.5-0.274 2.966-0.876 4.337-0.641 1.459 1.512 2.733 2.158 1.262 0.991-2.255 1.414-4.586 1.107-7.046-0.221-1.768-0.638-4.312-2.689-4.761C36.135 1.451 35.465 3.86 37.038 4.205L37.038 4.205z" fill="#1dbf72" data-fill-palette-color="accent"></path></g><g fill="#1dbf72" data-fill-palette-color="accent"><path d="M49.365 13.594c-0.742-0.307-1.335-0.889-2.062-1.228-0.753-0.352-1.557-0.479-2.376-0.561-1.806-0.179-3.642-0.217-5.365 0.415-1.498 0.549-0.851 2.966 0.664 2.41 1.482-0.543 3.141-0.531 4.701-0.325 1.463 0.193 2.449 1.151 3.773 1.7C50.185 16.62 50.833 14.202 49.365 13.594L49.365 13.594z" fill="#1dbf72" data-fill-palette-color="accent"></path></g><g fill="#1dbf72" data-fill-palette-color="accent"><path d="M18.555 24.256c0.861 0.38 1.755 1.472 2.271 2.249 0.614 0.924 1.185 1.773 2.164 2.361 1.383 0.83 2.641-1.331 1.262-2.159-0.915-0.549-1.365-1.663-2.058-2.445-0.702-0.794-1.383-1.726-2.377-2.165C18.358 21.454 17.084 23.608 18.555 24.256L18.555 24.256z" fill="#1dbf72" data-fill-palette-color="accent"></path></g><g fill="#1dbf72" data-fill-palette-color="accent"><path d="M14.879 29.415c0.923 0.554 1.423 1.725 1.96 2.613 0.832 1.374 2.995 0.119 2.159-1.262-0.786-1.298-1.515-2.703-2.857-3.509C14.758 26.426 13.5 28.587 14.879 29.415L14.879 29.415z" fill="#1dbf72" data-fill-palette-color="accent"></path></g><g fill="#1dbf72" data-fill-palette-color="accent"><path d="M10.89 34.686c0.346 0.368 0.681 0.747 0.984 1.152 0.403 0.54 1.081 0.816 1.71 0.449 0.532-0.311 0.855-1.166 0.448-1.71-0.431-0.577-0.881-1.134-1.374-1.659C11.553 31.744 9.788 33.514 10.89 34.686L10.89 34.686z" fill="#1dbf72" data-fill-palette-color="accent"></path></g></g></svg></g></svg></g></svg></g><defs></defs></svg><rect width="395.52" height="133.3576531164451" fill="none" stroke="none" visibility="hidden"></rect></g></svg></g></svg>